# xmcd
#
# Track frame offsets:
#	150
#	17912
#	34322
#	50946
#	66759
#	80097
#	95801
#	116511
#	134236
#	149184
#	157907
#	170765
#	185652
#	200852
#	216930
#	231845
#	245681
#	262785
#	282592
#	302997
#	323528
#	336881
#
# Disc length: 4696 seconds
#
# Revision: 0
# Processed by: cddbd v1.4PL0 Copyright (c) Steve Scherf et al.
# Submitted via: EasyCDDAExtractor 4.6.9.1
#
DISCID=6c125616
DTITLE=XXXXL - Танцевальный Размер 3
DYEAR=2000
DGENRE=Disco
TTITLE0=Тату - Я сошла с ума
TTITLE1=Жуки - Танкист
TTITLE2=Дискотека Авария - Новогодняя 2001
TTITLE3=Демо - Давайте петь
TTITLE4=Таяна - Не святая
TTITLE5=140 ударов - Вау-ва
TTITLE6=Валерия - Моя Москва (ремикс)
TTITLE7=Вирус - Отпускаю
TTITLE8=Виа Гра - Попытка № 5
TTITLE9=Пульс - Хорошая
TTITLE10=Дискотека Авария и Мумий Троль - Девочка
TTITLE11=Мистер Джан - Девченки
TTITLE12=Матрикс - За последней чертой
TTITLE13=Динамит - Ла-ла-ла
TTITLE14=Фанки - Игрушка
TTITLE15=DVD - Я один
TTITLE16=Карамель and Данко - Облака
TTITLE17=О Канайкина - Вот и всё
TTITLE18=Валдай - WWW
TTITLE19=Стрелки Int - Я буду жить
TTITLE20=J. Power - Power - сила
TTITLE21=В. Зинчук - Лолита
EXTD=
EXTT0=
EXTT1=
EXTT2=
EXTT3=
EXTT4=
EXTT5=
EXTT6=
EXTT7=
EXTT8=
EXTT9=
EXTT10=
EXTT11=
EXTT12=
EXTT13=
EXTT14=
EXTT15=
EXTT16=
EXTT17=
EXTT18=
EXTT19=
EXTT20=
EXTT21=
PLAYORDER=
